<svg width="160" height="31" viewBox="0 0 160 31" fill="none" xmlns="http://www.w3.org/2000/svg">
<path d="M15.4835 30.9605C24.033 30.9605 30.9638 24.0297 30.9638 15.4802C30.9638 6.93074 24.033 0 15.4835 0C6.93404 0 0.0032959 6.93074 0.0032959 15.4802C0.0032959 24.0297 6.93404 30.9605 15.4835 30.9605Z" fill="#FFC800"/>
<path d="M17.2452 3.95246C16.3698 5.64391 14.3973 7.55908 11.7829 9.06895C9.16949 10.5777 6.52479 11.33 4.62367 11.2424C3.57205 11.1938 2.32049 10.8415 1.96275 9.72391C1.68714 8.8636 2.01787 7.75254 2.81333 6.58204C2.94087 6.39939 3.07273 6.21997 3.20891 6.04272C4.40967 4.47881 5.93035 3.12025 7.74393 2.07404C9.5575 1.02675 11.4943 0.387998 13.4484 0.129687C13.6764 0.0961827 13.898 0.072406 14.1131 0.0561941C15.5235 -0.0475624 16.6497 0.221554 17.2571 0.888405C18.0526 1.75412 17.7283 3.01974 17.2452 3.95246ZM28.3796 6.91168C28.1688 6.59501 27.9494 6.28806 27.7203 5.99192C26.3542 4.22482 24.6562 2.81979 22.7681 1.81681C23.2955 2.16374 23.7213 2.60039 24.0261 3.1289C24.1807 3.39693 24.2996 3.68118 24.3839 3.9784C24.7059 5.11216 24.5233 6.43721 23.9159 7.82712C22.6967 10.6231 19.7656 13.6839 15.7775 15.9871C11.7883 18.2903 7.67043 19.2998 4.63988 18.9572C3.13325 18.7875 1.89574 18.2827 1.07541 17.4376C0.860335 17.216 0.673356 16.9717 0.518803 16.7026C0.208614 16.1655 0.0432525 15.5667 0.0108287 14.9247C-0.0702311 17.0895 0.302644 19.2911 1.16836 21.3835C1.29698 21.6959 1.43748 22.0061 1.58879 22.313C1.59636 22.326 1.60284 22.339 1.61041 22.3519C2.17134 23.3236 3.00031 24.0855 4.03247 24.6378C7.67259 26.5865 13.8321 25.9175 19.5895 22.5919C25.3447 19.2684 29.0032 14.2708 29.1394 10.1443C29.1783 8.97708 28.9362 7.88116 28.3796 6.91168ZM22.1455 27.0134C16.8896 30.0483 11.1873 30.5919 7.54506 28.7719C12.2065 31.5506 18.1931 31.7916 23.2252 28.8853C28.2585 25.9791 31.0426 20.6735 30.9681 15.2457C30.7238 19.3117 27.4014 23.9785 22.1455 27.0134Z" fill="black"/>
<path d="M15.4835 30.9605C24.033 30.9605 30.9638 24.0297 30.9638 15.4802C30.9638 6.93074 24.033 0 15.4835 0C6.93404 0 0.0032959 6.93074 0.0032959 15.4802C0.0032959 24.0297 6.93404 30.9605 15.4835 30.9605Z" fill="url(#paint0_radial_48_3347)"/>
<path d="M48.0587 7.14508C48.0587 9.48176 46.5272 11.2716 44.1419 11.2716C41.7566 11.2716 40.2251 9.48284 40.2251 7.14508C40.2251 4.82353 41.7566 3.05103 44.1419 3.05103C46.5272 3.05103 48.0587 4.82353 48.0587 7.14508ZM41.869 7.14508C41.869 8.56309 42.7715 9.49797 44.1419 9.49797C45.5124 9.49797 46.4148 8.56309 46.4148 7.14508C46.4148 5.74329 45.5124 4.82353 44.1419 4.82353C42.7715 4.82353 41.869 5.74221 41.869 7.14508Z" fill="black"/>
<path d="M49.1384 7.16131C49.1384 4.95325 50.1544 3.06726 52.1852 3.06726C53.1849 3.06726 53.8777 3.45418 54.2809 4.14697V0.149109H55.9247V4.14697C56.3441 3.45418 57.0045 3.06726 57.988 3.06726C60.0188 3.06726 61.051 4.95325 61.051 7.16131C61.051 9.38559 60.0512 11.2554 58.0042 11.2554C57.0369 11.2554 56.3117 10.836 55.9247 10.1432V14.3346H54.2798V10.1432C53.8766 10.836 53.2001 11.2554 52.1841 11.2554C50.1695 11.2554 49.1384 9.38559 49.1384 7.16131ZM54.2798 9.07865V5.21048C53.9253 4.85598 53.3935 4.72736 52.6845 4.72736C51.5075 4.72736 50.7823 5.62983 50.7823 7.16131C50.7823 8.6928 51.5075 9.61148 52.6845 9.61148C53.3611 9.61148 53.9253 9.43423 54.2798 9.07865ZM57.52 9.61148C58.6808 9.61148 59.406 8.6928 59.406 7.16131C59.406 5.62983 58.6808 4.72736 57.52 4.72736C56.7948 4.72736 56.263 4.85598 55.9247 5.21048V9.07865C56.263 9.43423 56.8272 9.61148 57.52 9.61148Z" fill="black"/>
<path d="M64.2414 8.4345L67.6589 3.2121H69.2228V11.1106H67.5951V5.8233L64.1614 11.1106H62.5975V3.2121H64.2414V8.4345Z" fill="black"/>
<path d="M77.3126 11.1106H71.204V3.2121H72.8479V9.40182H76.0719V3.2121H77.6996V9.40182H78.8928V13.1414H77.3126V11.1106Z" fill="black"/>
<path d="M81.665 8.4345L85.0825 3.2121H86.6464V11.1106H85.0176V5.8233L81.5839 11.1106H80.02V3.2121H81.6639V8.4345H81.665Z" fill="black"/>
<path d="M92.8188 9.80492C92.3508 10.6912 91.6094 11.1754 90.5297 11.1754C89.1268 11.1754 88.2081 10.4015 88.2081 8.99973C88.2081 7.61307 89.0144 7.04889 90.5135 6.50093L92.6891 5.69465C92.5929 4.95323 91.9963 4.71113 91.2549 4.71113C90.4173 4.71113 89.852 5.00078 89.7234 5.64602H88.3054C88.5151 3.90486 89.772 3.05103 91.3197 3.05103C93.1247 3.05103 94.3179 3.98591 94.3017 5.9843L94.253 8.78897C94.253 9.36936 94.4303 9.56282 94.8334 9.56282H95.0755V11.1105C94.8334 11.1267 94.5438 11.1429 94.3017 11.1429C93.464 11.1419 92.9161 10.7074 92.8188 9.80492ZM91.0625 9.5304C91.7715 9.5304 92.3843 9.30451 92.674 8.98244L92.7064 6.80679L91.2722 7.35476C90.2249 7.75789 89.8055 8.04755 89.8055 8.64415C89.8045 9.25696 90.3049 9.5304 91.0625 9.5304Z" fill="black"/>
<path d="M96.0266 9.41803C96.7032 9.41803 96.9778 8.6766 97.155 7.08027C97.2674 6.06432 97.3323 4.79114 97.3809 3.2121H102.538V11.1106H100.911V4.90462H98.7513C98.7189 5.69469 98.6703 6.61336 98.6065 7.371C98.3644 10.1432 97.8489 11.2078 96.4146 11.2078C96.0764 11.2078 95.7219 11.1592 95.496 11.0792V9.37047C95.6235 9.38561 95.817 9.41803 96.0266 9.41803Z" fill="black"/>
<path d="M106.149 5.87194H107.471C109.26 5.87194 110.469 6.54852 110.469 8.37074C110.469 10.2243 109.164 11.1106 107.504 11.1106H104.505V3.2121H106.149V5.87194ZM106.149 7.19375V9.46666H107.39C108.357 9.46666 108.889 9.12838 108.889 8.33832C108.889 7.59689 108.47 7.19375 107.423 7.19375H106.149Z" fill="black"/>
<path d="M116.739 7.88654H113.499V11.1106H111.855V3.2121H113.499V6.19401H116.739V3.2121H118.383V11.1106H116.739V7.88654Z" fill="black"/>
<path d="M121.993 5.87194H123.315C125.103 5.87194 126.313 6.54852 126.313 8.37074C126.313 10.2243 125.007 11.1106 123.347 11.1106H120.349V3.2121H121.993V5.87194ZM121.993 7.19375V9.46666H123.234C124.201 9.46666 124.733 9.12838 124.733 8.33832C124.733 7.59689 124.313 7.19375 123.266 7.19375H121.993ZM128.828 11.1106H127.2V3.2121H128.828V11.1106Z" fill="black"/>
<path d="M132.115 8.43449L135.533 3.21208H137.097V11.1105H135.469V5.82329L132.035 11.1105H130.472V3.21208H132.115V8.43449ZM133.811 1.37041C134.392 1.37041 134.714 1.1121 134.907 0.596558H136.019C135.938 1.80597 135.229 2.64359 133.811 2.64359C132.377 2.64359 131.683 1.80597 131.603 0.596558H132.715C132.909 1.1121 133.231 1.37041 133.811 1.37041Z" fill="black"/>
<path d="M45.5275 20.7685H42.3197V26.9745H40.6758V19.076H47.1714V26.9745H45.5275V20.7685Z" fill="black"/>
<path d="M53.3287 25.6689C52.8607 26.5551 52.1193 27.0393 51.0396 27.0393C49.6367 27.0393 48.718 26.2655 48.718 24.8637C48.718 23.477 49.5243 22.9128 51.0234 22.3649L53.199 21.5586C53.1028 20.8172 52.5062 20.5751 51.7648 20.5751C50.9272 20.5751 50.3619 20.8647 50.2333 21.51H48.8153C49.025 19.7688 50.2819 18.915 51.8296 18.915C53.6346 18.915 54.8278 19.8499 54.8115 21.8483L54.7629 24.6529C54.7629 25.2333 54.9402 25.4268 55.3433 25.4268H55.5854V26.9745C55.3433 26.9907 55.0536 27.0069 54.8115 27.0069C53.9739 27.0069 53.426 26.5713 53.3287 25.6689ZM51.5724 25.3944C52.2814 25.3944 52.8942 25.1685 53.1839 24.8464L53.2163 22.6707L51.7821 23.2187C50.7348 23.6218 50.3154 23.9115 50.3154 24.5081C50.3143 25.1209 50.8148 25.3944 51.5724 25.3944Z" fill="black"/>
<path d="M60.9202 18.9312C63.0321 18.9312 64.4987 20.4951 64.4987 22.9615C64.4987 25.4278 63.0483 27.1204 60.9364 27.1204C59.7432 27.1204 58.938 26.701 58.4376 25.8472V30.1996H56.7937V19.076H58.3576V20.4627C58.7932 19.5278 59.647 18.9312 60.9202 18.9312ZM62.8548 22.9766C62.8548 21.51 62.081 20.6713 60.5657 20.6713C59.5022 20.6713 58.777 20.9609 58.4376 21.6224V24.4595C58.7759 25.136 59.5011 25.3781 60.5819 25.3781C62.081 25.3781 62.8548 24.427 62.8548 22.9766Z" fill="black"/>
<path d="M71.6882 19.076V20.7848H69.3029V26.9745H67.659V20.7848H65.2737V19.076H71.6882Z" fill="black"/>
<path d="M77.9416 23.7505H74.7014V26.9745H73.0575V19.076H74.7014V22.0579H77.9416V19.076H79.5855V26.9745H77.9416V23.7505Z" fill="black"/>
<path d="M84.8404 27.1355C82.6323 27.1355 81.1008 25.3943 81.1008 23.0252C81.1008 20.6561 82.6485 18.915 84.8728 18.915C87.0971 18.915 88.5961 20.5913 88.5961 23.0901C88.5961 23.1549 88.5799 23.3646 88.5799 23.4284H82.7285C82.8571 24.734 83.6634 25.5078 84.8728 25.5078C85.9687 25.5078 86.6302 25.0885 86.936 24.4605H88.4189C88.0806 25.911 86.9847 27.1355 84.8404 27.1355ZM84.3605 17.1738C84.3605 17.819 83.925 18.1735 83.377 18.1735C82.8128 18.1735 82.3935 17.819 82.3935 17.1738C82.3935 16.561 82.829 16.1903 83.377 16.1903C83.9098 16.1903 84.3605 16.5621 84.3605 17.1738ZM82.7609 22.3487H86.9523C86.7912 21.2852 86.0984 20.5437 84.8728 20.5437C83.7282 20.5426 82.9706 21.2041 82.7609 22.3487ZM87.4073 17.1738C87.4073 17.819 86.9879 18.1735 86.4238 18.1735C85.8596 18.1735 85.4402 17.819 85.4402 17.1738C85.4402 16.561 85.8758 16.1903 86.4238 16.1903C86.9566 16.1903 87.4073 16.5621 87.4073 17.1738Z" fill="black"/>
<path d="M94.1892 18.9312C96.3011 18.9312 97.7677 20.4951 97.7677 22.9615C97.7677 25.4278 96.3173 27.1204 94.2054 27.1204C93.0122 27.1204 92.207 26.701 91.7066 25.8472V30.1996H90.0627V19.076H91.6267V20.4627C92.0611 19.5278 92.916 18.9312 94.1892 18.9312ZM96.1238 22.9766C96.1238 21.51 95.35 20.6713 93.8347 20.6713C92.7712 20.6713 92.046 20.9609 91.7066 21.6224V24.4595C92.0449 25.136 92.7701 25.3781 93.8509 25.3781C95.35 25.3781 96.1238 24.427 96.1238 22.9766Z" fill="black"/>
<path d="M140.154 18.3163C141.446 18.3163 142.365 17.6375 142.54 16.1493H141.271C141.14 16.6745 140.833 16.9372 140.154 16.9372C139.476 16.9372 139.125 16.6745 139.016 16.1493H137.747C137.923 17.6375 138.864 18.3163 140.154 18.3163Z" fill="black"/>
<path d="M114.102 24.3687V18.9939H112.504V26.8286H114.168L117.384 21.3641V26.8286H118.982V18.9939H117.318L114.102 24.3687Z" fill="black"/>
<path d="M107.477 19.0599C106.212 19.0599 105.131 19.65 104.572 20.7437C104.652 18.968 105.005 17.9131 107.06 17.6375L110.255 17.1998L110.125 15.4489L106.798 15.9083C103.932 16.3017 103.121 18.513 103.121 21.9921C103.121 25.0334 104.5 26.9821 107.06 26.9821C109.555 26.9821 110.912 25.0561 110.912 22.8026C110.912 20.5481 109.403 19.0599 107.477 19.0599ZM107.062 25.2528C105.618 25.2528 104.764 24.2023 104.764 22.6265V21.817C105.07 21.2042 105.88 20.7232 107.062 20.7232C108.309 20.7232 109.272 21.3144 109.272 22.8026C109.272 24.2898 108.505 25.2528 107.062 25.2528Z" fill="black"/>
<path d="M150.128 18.9939V21.9272H147.021V18.9939H145.423V26.8286H147.021V23.5462H150.128V26.8286H151.725V18.9939H150.128Z" fill="black"/>
<path d="M138.535 24.3687V18.9939H136.938V26.8286H138.601L141.818 21.3641V26.8286H143.415V18.9939H141.753L138.535 24.3687Z" fill="black"/>
<path d="M121.855 23.7872C121.68 24.6627 121.439 25.0345 120.958 25.0345C120.696 25.0345 120.499 25.0129 120.367 24.9685V26.7854C120.564 26.8729 120.739 26.9388 121.155 26.9388C121.986 26.9388 122.577 26.4579 122.862 25.7132C123.037 25.2539 123.146 24.6194 123.233 23.8088C123.321 22.9993 123.387 21.9272 123.387 20.6572H125.51V26.8286H127.107V18.9939H122.052C122.052 21.3576 121.987 22.9118 121.855 23.7872Z" fill="black"/>
<path d="M134.646 24.7059L134.667 21.5986C134.689 19.6294 133.486 18.8199 131.735 18.8199C130.291 18.8199 128.978 19.6078 128.781 21.4462H130.313C130.4 20.7243 130.969 20.4833 131.735 20.4833C132.521 20.4833 133.046 20.7243 133.125 21.5306L131.167 22.3217C129.832 22.8686 128.824 23.4814 128.824 24.7729C128.824 26.1077 129.568 26.9616 131.056 26.9616C132.084 26.9616 132.734 26.4784 133.254 25.536C133.331 26.4795 133.957 26.8956 135.039 26.8956H135.477V25.3858H135.346C134.843 25.3847 134.646 25.188 134.646 24.7059ZM131.648 25.3187C130.904 25.3187 130.356 25.122 130.356 24.4433C130.356 23.8521 130.815 23.5895 131.603 23.262L133.128 22.6276L133.113 24.7502C132.852 25.0777 132.326 25.3187 131.648 25.3187Z" fill="black"/>
<path d="M159.169 24.7059L159.19 21.5986C159.212 19.6294 158.009 18.8199 156.258 18.8199C154.814 18.8199 153.501 19.6078 153.304 21.4462H154.836C154.923 20.7243 155.492 20.4833 156.258 20.4833C157.044 20.4833 157.569 20.7243 157.648 21.5306L155.69 22.3217C154.355 22.8686 153.348 23.4814 153.348 24.7729C153.348 26.1077 154.091 26.9616 155.58 26.9616C156.607 26.9616 157.257 26.4784 157.777 25.536C157.855 26.4795 158.48 26.8956 159.562 26.8956H160V25.3858H159.869C159.366 25.3847 159.169 25.188 159.169 24.7059ZM156.171 25.3187C155.427 25.3187 154.879 25.122 154.879 24.4433C154.879 23.8521 155.339 23.5895 156.126 23.262L157.651 22.6276L157.636 24.7502C157.375 25.0777 156.849 25.3187 156.171 25.3187Z" fill="black"/>
<defs>
<radialGradient id="paint0_radial_48_3347" cx="0" cy="0" r="1" gradientUnits="userSpaceOnUse" gradientTransform="translate(15.503 15.4989) rotate(-30.0041) scale(15.4794)">
<stop offset="0.5" stop-color="white" stop-opacity="0"/>
<stop offset="1" stop-color="white" stop-opacity="0.35"/>
</radialGradient>
</defs>
</svg>
